<svg version="1.2" xmlns="http://www.w3.org/2000/svg" viewBox="0 0 586 406" width="586" height="406">
	<style>
		.s0 { fill: #fefefe }
		.s1 { fill: #000000 }
	</style>
	<g id="Background">
		<path id="Path 1" class="s1"
			d="m272 1.53c-6.32 0.8-16.23 2.41-22 3.58-5.78 1.16-14.55 3.43-19.5 5.04-4.95 1.61-14.4 5.58-21 8.82-6.6 3.24-13.57 6.85-15.5 8.02l-3.5 2.13c-10.85-7.08-16.81-10.26-20.25-11.63-3.44-1.37-9.51-2.98-13.5-3.58-5.38-0.81-8.92-0.78-13.75 0.09-3.57 0.65-8.75 2.09-11.5 3.19-2.75 1.11-7.03 3.41-9.5 5.12-2.47 1.7-11.47 8.97-20 16.15-8.53 7.18-19.1 15.8-23.5 19.15-4.4 3.36-12.5 9.04-18 12.64-5.5 3.59-17.2 10.65-26 15.69-9.6 5.5-17.9 11.05-20.76 13.87-2.62 2.58-6.09 7.16-7.72 10.19-1.62 3.03-3.64 8.76-4.49 12.75-1.38 6.56-1.38 8.03 0.07 15.5 0.88 4.54 2.93 11.63 4.57 15.75 1.63 4.13 5.26 11.78 8.06 17 2.8 5.22 9.9 17.6 15.78 27.5 5.87 9.9 13.65 23.63 17.29 30.5 3.64 6.88 8.46 17 10.71 22.5 2.25 5.5 5.31 11.55 6.79 13.44 1.49 1.89 4.5 4.25 6.7 5.23 2.2 0.98 6.25 1.8 9 1.83 3.58 0.03 6.71-0.8 11-2.91 3.69-1.81 8.11-5.19 11.48-8.77 3.69-3.93 6.84-8.74 9.67-14.82 2.32-4.95 5.2-12.82 6.41-17.5 1.49-5.74 2.37-12.73 2.7-21.5 0.32-8.36-0.13-19.78-1.26-32-1.14-12.34-1.55-22.86-1.17-30 0.32-6.05 1.49-15.72 2.61-21.5 1.12-5.78 3.54-15 5.4-20.5 1.85-5.5 5.18-13.82 7.41-18.5 2.23-4.67 6.29-11.87 9.02-16 2.74-4.12 7.4-9.67 10.35-12.32 2.96-2.66 6.28-5.05 7.38-5.33 1.1-0.28 3.8-0.05 6 0.51 2.2 0.56 5.07 1.83 6.38 2.83l2.38 1.81c-10.07 13.18-14.93 20.15-17.29 24-2.36 3.85-6.45 11.5-9.07 17-2.63 5.5-5.95 13.6-7.37 18-1.42 4.4-3.26 11.6-4.1 16-0.83 4.4-1.78 13.18-2.09 19.5-0.32 6.32-0.07 16.45 0.56 22.5 0.62 6.05 3.38 24.05 6.12 40 2.74 15.95 6.6 35.53 8.58 43.5 1.98 7.98 5.87 21.48 8.63 30 2.77 8.52 7.03 20.45 9.48 26.5 2.44 6.05 6.06 13.93 8.05 17.5 1.99 3.57 6.18 10.32 9.32 15 3.14 4.68 8.46 11.65 11.82 15.5 3.36 3.85 9.37 9.83 13.36 13.29 3.98 3.47 10.17 8.25 13.74 10.64 3.57 2.39 10.21 6.19 14.75 8.46 4.54 2.26 11.74 5.28 16 6.71 4.26 1.43 12.25 3.46 17.75 4.5 5.5 1.05 13.37 1.9 17.5 1.9 4.12 0.01 12-0.93 17.5-2.09 5.5-1.15 14.5-3.84 20-5.98 5.5-2.14 13.6-6 18-8.57 4.4-2.57 11.37-7.25 15.5-10.39 4.12-3.14 11.55-9.93 16.5-15.09 4.95-5.16 11.32-12.75 14.16-16.88 2.84-4.12 7.88-13.12 11.2-20 3.32-6.87 9.44-21.61 13.59-32.75 4.15-11.14 9.3-26.21 11.43-33.5 2.13-7.29 5.28-20.45 7-29.25 1.71-8.8 4.51-24.1 6.21-34 2.34-13.64 3.22-22.36 3.63-36 0.42-13.9 0.18-20.17-1.05-27.5-0.88-5.22-2.91-13.55-4.52-18.5-1.6-4.95-4.96-13.28-7.46-18.5-2.5-5.22-6.88-13.32-9.73-18-2.85-4.67-7.62-11.87-10.59-16l-5.4-7.5c3.51-2.7 6.33-3.96 8.53-4.55 2.71-0.71 4.97-0.73 7-0.05 1.65 0.55 4.97 2.93 7.38 5.3 2.41 2.36 6.21 7 8.45 10.3 2.23 3.3 6.2 10.5 8.81 16 2.62 5.5 6.33 14.72 8.25 20.5 1.92 5.78 4.3 14.33 5.3 19 1.42 6.69 1.81 12.98 1.8 29.5-0.01 11.55-0.52 27.07-1.14 34.5-0.73 8.75-0.82 17.02-0.25 23.5 0.48 5.5 1.81 13.38 2.96 17.5 1.14 4.13 3.24 10.43 4.66 14 1.42 3.57 4.02 8.75 5.77 11.5 1.76 2.75 5.18 6.9 7.6 9.23 2.43 2.33 6.89 5.45 9.91 6.94 3.02 1.5 7.3 2.91 9.5 3.15 2.2 0.24 5.8-0.15 8-0.87 2.2-0.72 5.8-3.15 8-5.38 2.94-2.99 5.02-6.73 7.84-14.07 2.12-5.5 7.4-16.64 11.75-24.75 4.35-8.11 13.39-23.86 20.09-35 6.7-11.14 14.79-25.65 17.98-32.25 3.19-6.6 6.77-15.82 7.95-20.5 1.58-6.27 1.98-10.01 1.52-14.25-0.35-3.16-1.53-8.11-2.63-11-1.1-2.89-3.69-7.68-5.75-10.65-2.09-3-6.41-7.26-9.75-9.6-3.3-2.32-10.05-6.38-15-9.02-4.95-2.65-13.73-7.51-19.5-10.8-5.77-3.29-15.67-9.48-22-13.77-6.32-4.28-19.82-14.59-30-22.9-11.73-9.59-21.06-16.39-25.5-18.57-3.85-1.9-9.7-3.95-13-4.55-3.3-0.61-8.81-0.83-12.25-0.49-3.44 0.33-9.06 1.62-12.5 2.88-3.44 1.25-10.19 4.62-15 7.5l-8.75 5.22c-15.11-8.45-24-12.71-29.5-14.92-5.5-2.2-15.18-5.36-21.5-7.01-6.32-1.65-16.68-3.68-23-4.5-6.32-0.83-17.13-1.72-24-2-7.97-0.31-16.67 0.03-24 0.96z" />
		<path id="Path 2" fill-rule="evenodd" class="s0"
			d="m289.5 23.12c4.4-0.07 12.95 0.37 19 0.97 6.05 0.6 11.23 1.29 11.5 1.53 0.27 0.24-1.17 7.96-3.21 17.16-2.04 9.2-4.59 22.34-5.67 29.22-1.08 6.88-2.5 17.45-3.16 23.5-0.74 6.91-1 19.93-0.7 35 0.32 16.19 1.02 26.93 2.14 33 0.92 4.95 2.83 12.82 4.25 17.5 1.42 4.68 4.24 12.1 6.26 16.5 2.03 4.4 6.18 11.82 9.24 16.5 3.05 4.68 8.68 12.1 12.5 16.5 3.83 4.4 10.54 11.08 14.91 14.85 4.37 3.77 11.09 8.93 14.94 11.47 3.85 2.54 10.26 5.87 14.25 7.4 3.99 1.53 9.28 3.12 11.77 3.53 2.56 0.43 4.5 1.29 4.5 2-0.01 0.69-1.58 6.09-3.48 12-1.9 5.91-5.77 16.38-8.6 23.25-2.83 6.88-6.27 14.75-7.66 17.5-1.38 2.75-4.45 7.93-6.82 11.5-2.37 3.57-7.27 9.54-17.46 20l-7.75 0.01c-4.26 0-10.45-0.68-13.75-1.51-3.3-0.84-9.6-3.27-14-5.42-5.2-2.53-9.61-5.59-12.6-8.74-3.47-3.65-4.78-5.94-5.37-9.34-0.64-3.77-0.48-4.66 1.01-5.5 0.97-0.55 4.96-3.1 8.86-5.66 3.91-2.57 9.48-7.07 12.4-10 2.91-2.94 6.41-7.59 7.78-10.34 1.37-2.75 2.76-6.8 3.1-9 0.35-2.27 0.03-6.16-0.73-9-0.97-3.58-2.65-6.29-5.9-9.53-3.13-3.11-6.27-5.08-10.05-6.29-3.02-0.97-10.23-2.25-16-2.84-5.77-0.59-15.45-0.79-21.5-0.44-6.05 0.35-13.48 1.11-16.5 1.68-3.02 0.58-7.73 2.26-10.46 3.74-2.91 1.57-6.22 4.48-8 7.02-2.63 3.76-3.08 5.36-3.36 12-0.27 6.77 0.02 8.3 2.49 13.16 1.54 3.02 4.84 7.52 7.33 10 2.49 2.48 8.46 7.09 13.27 10.25 8.56 5.64 8.73 5.83 8.73 9.75 0 2.2-0.68 5.35-1.5 7-0.82 1.65-3.64 4.61-6.25 6.57-2.61 1.97-7.45 4.87-10.75 6.45-3.3 1.58-8.93 3.56-12.5 4.41-3.57 0.85-9.76 1.55-21 1.57l-6.6-6.25c-3.63-3.44-8.98-9.85-11.89-14.25-2.91-4.4-7.14-11.71-9.4-16.25-2.26-4.54-5.86-12.64-8.01-18-2.14-5.36-5.07-13.8-6.5-18.75-1.44-4.95-2.61-9.68-2.61-10.5-0.01-1.08 2.02-1.85 7.25-2.76 3.99-0.69 10.64-2.87 14.76-4.85 4.13-1.97 9.53-4.97 12-6.66 2.47-1.68 8.1-6.09 12.5-9.79 4.4-3.71 11.15-10.42 15-14.92 3.85-4.51 9.4-11.87 12.33-16.36 2.94-4.49 7.05-11.76 9.15-16.16 2.09-4.4 5.01-11.82 6.47-16.5 1.47-4.68 3.56-13.68 4.64-20 1.17-6.83 2.22-19.01 2.58-30 0.37-11.34 0.15-23.92-0.58-32.5-0.66-7.7-2.1-20.3-3.2-28-1.11-7.7-3.36-20.3-5-28-1.65-7.7-3.08-14.9-3.19-16-0.18-1.78 0.73-2.12 8.3-3.13 4.68-0.62 12.1-1.18 16.5-1.25zm-82.43 112.15c5.31 0.19 7.51 0.81 11.45 3.23 2.8 1.72 6.1 4.92 7.74 7.5 2.22 3.48 2.98 6.09 3.38 11.5 0.47 6.28 0.23 7.56-2.31 12.49-1.58 3.08-4.59 6.85-6.83 8.57-2.2 1.69-6.25 3.58-9 4.2-2.75 0.61-7.02 0.82-9.5 0.47-2.47-0.36-6.74-2.02-9.47-3.69-3.91-2.39-5.61-4.32-7.97-9.04-2.28-4.57-2.98-7.31-2.93-11.5q0.06-5.5 2.47-10.45c1.32-2.72 4.07-6.32 6.1-8 2.04-1.68 5.19-3.6 7-4.28 1.82-0.67 6.26-1.12 9.87-1zm169.43-0.21c3.68-0.01 7.55 0.68 10 1.79 2.2 1 5.8 3.84 8 6.31 2.2 2.48 4.56 6.27 5.23 8.42 0.68 2.16 1.25 5.27 1.27 6.92 0.01 1.65-0.56 5.02-1.29 7.5-0.72 2.47-2.48 6.07-3.91 8-1.43 1.93-5.01 4.82-7.95 6.44-4.24 2.33-6.59 2.95-11.35 2.95-4.36 0-7.34-0.66-10.93-2.44-2.71-1.35-6.22-4.03-7.79-5.95-1.56-1.93-3.56-5.98-4.44-9-1-3.47-1.35-7.07-0.96-9.75 0.34-2.34 1.46-5.94 2.49-8 1.03-2.06 3.62-5.29 5.75-7.17 2.13-1.88 5.23-4 6.88-4.71 1.65-0.71 5.7-1.3 9-1.31zm-85.45 217.94c0.52 0 3.31 1.75 6.2 3.89 2.89 2.14 7.5 5.25 10.25 6.92 2.75 1.66 8.15 4.25 12 5.76 3.85 1.5 7.35 3 7.77 3.33 0.42 0.33-2.95 2.12-7.5 3.97-4.55 1.86-12.09 4.06-16.77 4.88-6.93 1.23-10.44 1.31-19 0.42-5.77-0.59-13.65-2.16-17.5-3.47-3.85-1.31-8.12-2.95-9.5-3.63-1.45-0.72-2.08-1.54-1.5-1.97 0.55-0.41 4.38-2.03 8.5-3.62 4.13-1.58 11.44-5.49 16.25-8.68 4.81-3.19 9-6.25 9.3-6.8 0.3-0.55 0.98-1 1.5-1z" />
		<path id="Path 3" class="s1"
			d="m199.08 151.5c-1.69 1.38-3.34 3.74-3.65 5.25-0.32 1.53 0.13 4.41 1 6.5 1.13 2.71 2.61 4.19 5.32 5.32 2.09 0.87 4.97 1.32 6.5 1 1.51-0.31 3.87-1.92 5.25-3.57 1.75-2.1 2.5-4.2 2.5-7 0-3.11-0.67-4.67-3-7-2.31-2.31-3.9-3-6.92-3-2.68 0-4.88 0.78-7 2.5zm171.82-1.42c-0.88 0.56-2.35 2.35-3.25 3.97-0.91 1.62-1.67 4.19-1.68 5.7-0.02 1.51 0.88 3.99 2 5.5 1.11 1.51 3.6 3.2 5.53 3.75 2.67 0.76 4.33 0.64 7-0.5 2.1-0.9 4.14-2.8 5.11-4.75 0.96-1.96 1.38-4.44 1.03-6.25-0.31-1.65-1.82-4.25-3.35-5.79-2.16-2.16-3.69-2.77-6.79-2.72-2.2 0.04-4.72 0.53-5.6 1.09z" />
	</g>
</svg>