<svg version="1.2" xmlns="http://www.w3.org/2000/svg" viewBox="0 0 303 641" width="303" height="641">
	<style>
		.s0 { fill: #f8fafb }
		.s1 { fill: #000000 }
	</style>
	<g id="Background">
		<path id="Path 1" class="s1"
			d="m140 1.08c-4.13 0.48-10.43 1.57-14 2.42-3.58 0.86-10.55 3.52-15.5 5.92l-9 4.36c-7.75-4.36-12.03-6.14-14.5-6.78-2.75-0.71-6.44-0.87-9.5-0.42-3.48 0.52-6.71 1.99-10.65 4.83-3.11 2.25-10.31 7.86-16 12.48-5.69 4.61-15.52 11.42-21.85 15.14-6.32 3.71-12.87 8.26-14.56 10.11-1.68 1.85-3.65 5.16-4.38 7.36-0.78 2.34-1.14 6.28-0.86 9.5 0.27 3.07 1.8 8.37 3.46 12 1.64 3.58 6.52 12.58 10.85 20 4.32 7.42 9.95 18 12.51 23.5 4.02 8.63 5.12 10.19 8.07 11.4 2.63 1.08 4.21 1.16 6.91 0.32 1.92-0.59 5.19-2.91 7.25-5.15 2.06-2.24 4.58-5.98 5.6-8.32 1.01-2.34 2.42-6.72 3.13-9.75 0.97-4.15 1.07-9.06 0.4-20-0.48-7.97-0.75-17.2-0.58-20.5 0.16-3.3 1.2-9.6 2.3-14 1.11-4.4 3.55-11.15 5.42-15 1.88-3.85 5.12-8.9 7.2-11.22 2.47-2.76 4.64-4.23 6.28-4.26 1.38-0.03 3.4 0.58 4.5 1.35 1.95 1.37 1.88 1.56-2.45 7.27-2.45 3.22-6.22 9.69-8.38 14.36-2.18 4.72-4.59 12.06-5.42 16.5-0.98 5.24-1.3 10.94-0.94 16.5 0.31 4.67 1.93 16.15 3.6 25.5 1.67 9.35 4.62 22.51 6.56 29.25q3.53 12.25 3.53 18.5c0 3.44-0.69 11.88-1.54 18.75-0.85 6.88-1.76 13.4-2.01 14.5-0.26 1.1-1.37 2.34-2.46 2.75-1.09 0.41-2.94 2.66-4.1 5-1.16 2.34-2.36 6.28-2.66 8.75-0.32 2.56-0.03 5.79 0.66 7.5 1.08 2.69 0.77 4.14-2.98 14-2.3 6.05-7.69 19.32-11.98 29.5-4.29 10.18-9.14 22.55-10.77 27.5-1.62 4.95-3.7 12.38-4.62 16.5-0.91 4.13-1.91 13.8-2.21 21.5-0.39 10.06-0.1 17.23 1.05 25.5 0.89 6.32 3.37 20.73 5.52 32 2.15 11.27 4.21 22.75 4.58 25.5l0.67 5c-8.25 1.3-12.9 2.53-15.65 3.58-2.75 1.05-7.21 3.82-9.91 6.16-2.7 2.34-6.72 6.96-8.94 10.26-2.22 3.3-5.58 9.38-7.48 13.5-1.89 4.13-4.51 11.77-5.82 17-1.84 7.35-2.38 12.16-2.36 21.25 0 6.46 0.66 14.79 1.45 18.5 0.79 3.71 2.85 10.8 4.57 15.75 1.73 4.95 6.89 16.88 11.47 26.5 4.58 9.63 9.16 19.56 10.17 22.08l1.85 4.58c-10.07 0.87-14.91 2.07-17.25 3.23-2.34 1.16-5.91 3.8-7.94 5.86-2.03 2.06-4.71 6-5.97 8.75-1.25 2.75-2.72 7.25-3.25 10-0.53 2.75-0.62 6.58-0.19 8.5 0.42 1.92 1.23 4.4 1.8 5.5 0.57 1.1 2.67 2.79 4.67 3.75 2.87 1.38 6.29 1.75 16.38 1.75h12.75c0.15 8.91 0.88 12.85 1.72 14.5 0.83 1.65 2.92 4.24 4.65 5.75 1.72 1.51 4.82 3.23 6.88 3.83 2.26 0.64 10.75 0.94 21.33 0.75 17.24-0.32 17.65-0.38 21.75-3.08 2.43-1.6 5.07-4.53 6.32-7 1.52-3 2.47-7.67 3.25-15.88l1.1-11.62c17.05-1.78 27.4-2.71 34-3.2 6.91-0.52 15.81-0.54 21-0.04 4.95 0.48 16.03 1.46 24.63 2.18l15.62 1.31c1.14 17.62 2.01 22.45 3.37 25.5 1.1 2.48 2.76 5.35 3.69 6.39 0.93 1.04 3.49 2.72 5.69 3.73 3.41 1.57 6.72 1.84 22.5 1.87l18.5 0.04c7.24-4.52 9.69-7.07 10.75-9.33 1.06-2.24 1.75-6.06 1.75-9.7v-6c26.74-0.01 28.9-0.25 31.75-2 1.79-1.1 3.87-3.46 4.63-5.25 1.04-2.47 1.17-4.93 0.5-10.25-0.48-3.85-1.96-9.25-3.29-12-1.33-2.75-4.37-6.77-6.76-8.94-2.38-2.17-6.13-4.74-8.33-5.73-2.2-0.98-7.04-2.13-10.76-2.56-3.72-0.42-6.75-1.22-6.75-1.77 0.01-0.55 4.32-9.77 9.57-20.5 5.26-10.73 11.15-23.77 13.1-29 1.94-5.23 4.43-13.77 5.53-19 1.58-7.53 1.9-11.99 1.52-21.5-0.3-7.76-1.23-14.83-2.61-20-1.18-4.4-4.16-12.16-6.62-17.25-3.29-6.8-6.27-11.13-11.23-16.34-4.48-4.7-8.77-8.08-12.75-10.03-3.3-1.62-8.59-3.27-11.76-3.66-5.69-0.71-5.76-0.76-5.75-3.97 0-1.79 1.57-11.24 3.48-21 1.9-9.76 4.4-22.93 5.54-29.25 1.15-6.32 2.35-17.13 2.67-24 0.44-9.39 0.15-15.23-1.16-23.5-0.97-6.05-2.81-14.6-4.09-19-1.29-4.4-4.34-12.95-6.78-19-2.44-6.05-7.65-18.88-11.58-28.5-3.93-9.62-7.65-19.07-8.25-21-0.92-2.88-0.82-3.94 0.54-6 0.93-1.4 1.65-4.48 1.65-7-0.01-2.93-1.06-6.68-3.01-10.75-2.69-5.6-3.26-6.2-5.5-5.75-1.37 0.28-2.5 0.16-2.5-0.25 0-0.41-0.66-3.9-1.46-7.75-0.8-3.85-1.92-12.85-2.49-20l-1.04-13c4.5-11.62 6.97-19.28 8.39-24.5 1.42-5.22 3.71-16.25 5.09-24.5 1.39-8.34 2.5-19 2.49-24 0-4.95-0.7-11.92-1.54-15.5-0.85-3.58-3.04-9.65-4.89-13.5-1.84-3.85-5.41-10.04-7.95-13.75-4.38-6.43-4.5-6.8-2.6-7.75 1.1-0.55 3.24-0.98 4.75-0.95 1.88 0.03 3.78 1.21 6.02 3.75 1.8 2.03 4.83 6.85 6.73 10.7 1.9 3.85 4.61 11.5 6.02 17 2.48 9.66 2.54 10.68 1.91 30-0.66 19.75-0.63 20.1 1.96 28 1.58 4.83 4.01 9.68 6.12 12.25 2.14 2.6 5.14 4.86 7.74 5.83 3.87 1.44 4.58 1.44 8 0 3.04-1.28 4.24-2.66 6.34-7.33 1.43-3.16 4.2-8.9 6.16-12.75 1.96-3.85 6.5-11.95 10.08-18 3.59-6.05 7.91-13.92 9.6-17.5 2.59-5.5 3.07-7.68 3.07-14.16 0-6.91-0.3-8.09-3-11.92-2.32-3.28-5.95-5.93-16-11.68-7.15-4.09-16.15-9.72-20-12.52-3.85-2.8-9.7-7.31-13-10.03-3.3-2.73-8.02-6.12-10.5-7.54-3.59-2.07-5.81-2.59-11-2.57-5.6 0.01-7.44 0.53-13.25 3.72l-6.75 3.7c-6.59-3.82-12.1-6.25-16.5-7.87-4.4-1.62-10.7-3.4-14-3.97-3.3-0.56-9.82-1.24-14.5-1.49-4.68-0.26-11.87-0.07-16 0.41z" />
		<path id="Path 2" fill-rule="evenodd" class="s0"
			d="m155.5 11.71c4.95 0.26 9.1 0.54 9.22 0.63 0.12 0.09-0.92 6.01-2.3 13.16-1.38 7.15-2.96 18.63-3.51 25.5-0.66 8.1-0.68 15.84-0.06 22 0.52 5.22 2.16 13.1 3.64 17.5 1.48 4.4 3.88 10.03 5.34 12.5 1.46 2.47 5.81 7.84 9.66 11.91 3.86 4.08 9.48 9.04 12.51 11.02 3.03 1.99 7.65 4.28 10.28 5.09 2.63 0.82 4.77 1.48 4.77 1.48-0.01 0-1.17 3.6-2.59 8-1.41 4.4-4.32 11.6-6.47 16-2.14 4.4-5.83 10.2-12.49 17.79l-6.5-0.67c-4.25-0.44-8.18-1.61-11.35-3.39-2.67-1.5-5.44-3.41-6.17-4.23-0.73-0.82-1.6-2.62-1.94-4-0.52-2.14 0.01-2.88 3.68-5.15 2.35-1.46 5.97-4.5 8.03-6.75 2.35-2.57 3.98-5.5 4.37-7.85 0.41-2.52 0.08-4.82-1-7-0.89-1.79-3.08-4.02-4.87-4.96-2.35-1.23-6.43-1.81-14.75-2.09-6.57-0.21-13.21 0.09-15.5 0.72-2.2 0.61-5.02 2.11-6.27 3.34-1.25 1.23-2.55 4.04-2.89 6.24-0.5 3.14-0.12 4.92 1.77 8.3 1.48 2.67 4.58 5.81 8.14 8.25 4.41 3.03 5.75 4.53 5.75 6.45 0 1.72-1.33 3.61-4.25 6.04-2.34 1.95-6.5 4.21-9.25 5.01-2.75 0.81-6.46 1.47-8.25 1.46-2.43-0.01-4.4-1.08-7.81-4.26-2.63-2.45-6.2-7.43-8.43-11.75-2.12-4.13-5.22-11.55-6.87-16.5-1.65-4.95-2.81-9.34-2.57-9.75 0.24-0.41 1.67-0.74 3.18-0.73 1.51 0.01 5.67-1.41 9.25-3.16 4.47-2.19 8.85-5.57 14-10.8 4.12-4.18 9.2-10.52 11.28-14.08 2.07-3.57 4.68-9.4 5.79-12.98 1.11-3.58 2.5-9.87 3.09-14 0.63-4.39 0.82-13.31 0.46-21.5-0.33-7.7-1.52-18.95-2.63-25-1.12-6.05-2.36-12.44-2.76-14.2-0.73-3.19-0.72-3.2 3.77-3.63 2.47-0.24 8.55-0.22 13.5 0.04zm-47.25 55.28c2.06 0.01 5.1 0.68 6.75 1.51 1.65 0.82 3.67 2.85 4.5 4.5 0.83 1.65 1.5 4.57 1.5 6.5 0 2.27-0.88 4.56-2.5 6.5-1.49 1.79-4.11 3.4-6.5 4-2.97 0.74-4.84 0.66-7.25-0.32-1.79-0.73-4.28-2.64-5.53-4.25-1.35-1.72-2.27-4.27-2.25-6.18 0.01-1.79 0.7-4.6 1.53-6.25 0.83-1.65 2.51-3.68 3.75-4.51 1.24-0.83 3.94-1.5 6-1.5zm83.77 0.01c2.19 0 5.22 0.61 6.73 1.36 1.63 0.81 3.46 3.04 4.5 5.5 1.21 2.86 1.52 5.11 1 7.29-0.41 1.73-1.87 4.23-3.25 5.55-1.37 1.33-4.07 2.8-6 3.27-2.03 0.51-4.86 0.48-6.75-0.05-1.97-0.56-4.06-2.2-5.31-4.17-1.59-2.52-1.95-4.38-1.6-8.25 0.37-4.04 1.05-5.53 3.57-7.75 2.29-2.02 4.18-2.75 7.11-2.75zm-91.2 104c0.84 1.37 4.93 5.87 9.1 10 4.88 4.82 10.08 8.8 14.58 11.15 3.85 2 10.38 4.44 14.5 5.41 5.42 1.27 9.72 1.61 15.5 1.21 5.12-0.36 10.52-1.52 15-3.23 3.85-1.47 9.7-4.61 13-6.97 3.3-2.37 8.81-7.29 12.25-10.94 5.62-5.97 6.3-6.4 6.7-4.38 0.25 1.24 1.71 8.65 3.25 16.48 2.79 14.17 2.79 14.24 0.8 15.7-1.1 0.81-5.82 3.76-10.5 6.56-4.68 2.79-11.87 6.16-16 7.47-4.12 1.31-11.52 2.89-16.44 3.51-4.92 0.62-12.12 0.84-16 0.5-3.88-0.34-10.88-1.54-15.56-2.66-4.67-1.11-11.87-3.58-16-5.49-4.12-1.9-10.31-5.45-13.75-7.89-3.44-2.44-6.47-4.88-6.75-5.43-0.27-0.55 0.37-5.16 1.44-10.25 1.06-5.09 2.25-12.4 2.65-16.25 0.69-6.81 0.75-6.93 2.23-4.5zm50.68 2.95c0.55-0.02 1.68 0.73 2.5 1.68 0.82 0.94 4.65 3.15 15.5 8.12l-5.5 1.86c-3.52 1.19-8.38 1.87-13.5 1.88-5.48 0.01-9.58-0.59-18-3.8l5-2.16c2.75-1.19 6.8-3.37 9-4.85 2.2-1.48 4.45-2.71 5-2.73zm-64.4 50.05c0.49 0 2.65 1.46 4.79 3.25 2.14 1.79 7.65 5.35 12.25 7.91 4.6 2.57 11.74 5.82 15.86 7.22 4.13 1.4 12 3.24 17.5 4.08 5.5 0.84 12.48 1.53 15.5 1.53 3.03 0 9.78-0.64 15-1.43 5.23-0.78 13.33-2.82 18-4.53 4.68-1.7 11.2-4.62 14.5-6.48 3.3-1.85 7.8-4.79 14-9.7l1.2 2.83c0.67 1.55 4.21 10.02 7.87 18.82 3.66 8.8 8.83 21.62 11.48 28.5 2.65 6.87 5.82 17.23 7.05 23 1.78 8.31 2.25 13.84 2.28 26.5 0.03 8.8-0.54 19.6-1.26 24-0.72 4.4-3.31 18.35-5.76 31-2.45 12.65-5.12 29.07-5.92 36.5-0.81 7.43-1.94 29.25-2.5 48.5-0.72 24.3-0.72 42.33 0.01 59 0.58 13.2 1.73 28.5 2.56 34 0.82 5.5 2.46 13.83 3.62 18.5 1.17 4.67 3.1 10.75 4.3 13.5 1.2 2.75 4.52 8.37 7.38 12.5 3.56 5.13 5.56 9.24 6.36 13 0.94 4.49 0.9 6.05-1.69 11.5l-15.99 0.29c-8.8 0.15-17 0.04-18.24-0.25-1.24-0.3-2.98-2-3.86-3.79-1.18-2.36-1.88-8.3-2.57-21.75-0.53-10.17-1.83-25.02-2.9-33-1.06-7.98-2.36-21.7-2.89-30.5-0.53-8.8-1.45-27.02-2.06-40.5-0.61-13.48-2.44-36.43-4.07-51-1.63-14.57-4.32-34.82-5.98-45-2.09-12.89-3.53-19.04-4.71-20.28-0.94-0.98-2.5-1.77-3.46-1.75-0.96 0.02-2.49 0.37-3.4 0.78-0.91 0.41-2 1.65-2.43 2.75-0.43 1.13 0.1 7.46 1.21 14.5 1.08 6.87 3.5 24.65 5.37 39.5 1.87 14.85 3.87 34.43 4.44 43.5 0.57 9.07 1.5 27.3 2.05 40.5 0.57 13.53 2.1 32.4 3.51 43.25 1.38 10.59 2.5 20.6 2.5 22.25 0 2.19-0.47 3-1.75 3-0.96 0-12.1-0.91-24.75-2.02-19.5-1.72-25.2-1.87-37.5-1-7.97 0.56-16.75 1.27-19.5 1.57-2.75 0.31-6.35 0.82-11 1.74l0.8-8.4c0.45-4.61 1.44-13.34 2.2-19.39 0.77-6.05 1.89-20.67 2.49-32.5 0.6-11.83 1.77-31.85 2.6-44.5 0.83-12.65 2.62-32.45 3.97-44 1.36-11.55 3.58-27.86 4.95-36.25 1.37-8.39 2.48-16.71 2.46-18.5-0.01-1.79-0.8-4.05-1.75-5.03-0.94-0.98-2.62-1.79-3.72-1.79-1.1 0-2.8 0.81-3.77 1.79-1.26 1.26-2.49 6.28-4.24 17.28-1.36 8.52-3.81 26.07-5.43 39-1.63 12.93-3.42 30.02-3.99 38-0.57 7.98-1.51 26.2-2.09 40.5-0.58 14.3-1.5 30.05-2.05 35-0.54 4.95-1.62 14.4-2.39 21-0.77 6.6-1.68 18.3-2.01 26-0.33 7.7-0.89 16.48-1.23 19.5-0.44 3.83-1.33 6.18-2.92 7.75-2.19 2.15-3.02 2.25-35.38 2.25l-2.09-2.75c-1.74-2.29-1.99-3.59-1.46-7.75 0.36-2.86 1.8-6.77 3.34-9.12 1.49-2.27 4.65-6.99 7.01-10.5 2.52-3.73 5.32-9.7 6.75-14.38 1.35-4.4 3.42-13.63 4.61-20.5 1.87-10.85 2.21-17.37 2.58-49.5 0.23-20.35-0.05-46-0.64-57-0.58-11-1.77-26.98-2.65-35.5-0.88-8.52-2.58-21.01-5.95-39.98l2.5-0.03c1.38-0.01 5.65-0.7 9.5-1.53 3.85-0.84 9.93-2.96 13.5-4.73 4.06-2.01 8.94-5.65 13-9.72 3.58-3.58 7.92-9.21 9.65-12.51 1.74-3.3 3.88-8.48 4.76-11.5 0.97-3.32 1.61-9.26 1.62-15 0.01-6.81-0.58-11.48-2.1-16.5-1.16-3.85-3.15-8.8-4.42-11-1.28-2.2-3.82-5.9-5.66-8.22-1.84-2.33-5.82-6.11-8.85-8.4-3.02-2.29-7.52-5.09-10-6.22-2.47-1.12-7.72-2.75-18.82-5.16l7.97-19c4.38-10.45 8.43-20.91 9.01-23.25 0.57-2.34 1.44-4.25 1.94-4.25zm-33.35 197.08c1.79-0.04 3.44 0.26 3.68 0.67 0.23 0.41 1.12 9.75 1.99 20.75 1.03 13.18 1.6 33.99 1.67 61 0.1 37.02-0.09 42.31-1.98 54.5-1.16 7.42-3.31 17.1-4.79 21.5-1.61 4.78-4.77 11.02-13.02 23l-28.3 0.5v-4c0-2.2 0.7-5.69 1.56-7.75 0.85-2.06 2.54-4.81 3.75-6.11 1.2-1.29 3.32-2.82 4.69-3.39 1.38-0.57 6.84-1.31 12.14-1.65 7.71-0.48 10.07-1 11.78-2.6 1.18-1.1 2.14-3.13 2.13-4.5-0.01-1.38-0.53-4.08-1.16-6-0.64-1.92-5.98-13.85-11.89-26.5-5.91-12.65-11.66-25.7-12.79-29-1.12-3.3-2.81-9.83-3.76-14.5-1.31-6.47-1.59-11.48-1.19-21 0.37-9 1.14-14.46 2.74-19.5 1.23-3.85 3.82-10.15 5.77-14 2.08-4.13 5.83-9.29 9.13-12.58 3.49-3.48 7.29-6.18 10.1-7.17 2.48-0.88 5.96-1.63 7.75-1.67zm189.69-0.35l6.03 0.67c3.45 0.37 7.74 1.65 10.03 2.99 2.2 1.28 5.93 4.53 8.3 7.22 2.36 2.69 6.05 8.49 8.21 12.89 2.15 4.4 4.82 11.82 5.94 16.5 1.32 5.49 2.03 11.87 2.03 18-0.01 5.23-0.68 12.65-1.5 16.5-0.81 3.85-2.67 10.6-4.13 15-1.46 4.4-7.26 17.67-12.89 29.5-5.64 11.83-11.02 23.98-11.97 27-1.48 4.76-1.53 5.89-0.35 8.4 0.75 1.59 2.37 3.28 3.61 3.75 1.24 0.47 5.51 0.85 9.5 0.86 3.99 0 8.94 0.45 11 1 2.06 0.54 5.22 2.45 7.02 4.24 2.22 2.21 3.82 5.25 5 9.5 0.95 3.44 1.5 6.7 1.23 7.25-0.3 0.6-6.33 1-29.5 1l-3.09-4.25c-1.71-2.34-4.36-6.73-5.91-9.75-1.54-3.02-3.79-9.33-4.99-14-1.2-4.67-3.1-14.35-4.22-21.5-1.75-11.15-2.08-18.55-2.32-52-0.15-21.45 0.12-45.98 0.59-54.5 0.48-8.52 1.21-17.92 1.62-20.88z" />
		<path id="Path 3" class="s1"
			d="m105.92 74.63c-1.49 1.01-2.15 2.42-2.05 4.43 0.09 1.97 0.87 3.3 2.38 4.04 1.24 0.61 3.26 0.83 4.5 0.5 1.39-0.37 2.49-1.65 2.88-3.35 0.35-1.51 0.24-3.37-0.25-4.12-0.48-0.76-1.87-1.73-3.07-2.18-1.45-0.53-2.94-0.3-4.39 0.68zm83.08 0.37c-1.1 1.1-2.02 2.56-2.04 3.25-0.03 0.69 0.83 2.38 1.9 3.75 1.7 2.18 2.3 2.37 4.79 1.48 2.24-0.8 2.9-1.71 3.1-4.25 0.19-2.41-0.32-3.61-2-4.74-1.24-0.83-2.59-1.5-3-1.5-0.41 0.01-1.65 0.91-2.75 2.01z" />
	</g>
</svg>